<svg width="92" height="92" viewBox="0 0 92 92" fill="none" xmlns="http://www.w3.org/2000/svg">
<path d="M55.1222 35.9785C56.111 35.9785 57.0769 36.0607 58.0297 36.1782C56.3071 28.613 48.3612 22.8906 38.8064 22.8906C27.9917 22.8906 19.2266 30.2164 19.2266 39.2506C19.2266 44.4592 22.1571 49.0803 26.7027 52.0704L24.1214 57.2468L31.1533 54.2266C32.6612 54.7636 34.2282 55.2059 35.9018 55.4116C35.6731 54.4132 35.5431 53.3898 35.5431 52.3393C35.5431 43.3179 44.3241 35.9785 55.1222 35.9785ZM45.333 30.2521C46.6842 30.2521 47.7801 31.3514 47.7801 32.7064C47.7801 34.0619 46.6843 35.1604 45.333 35.1604C43.9809 35.1604 42.8854 34.0619 42.8854 32.7064C42.8854 31.3513 43.9809 30.2521 45.333 30.2521ZM32.2796 35.1604C30.9281 35.1604 29.8322 34.0619 29.8322 32.7064C29.8322 31.3514 30.9283 30.2521 32.2796 30.2521C33.631 30.2521 34.7272 31.3514 34.7272 32.7064C34.727 34.0619 33.6309 35.1604 32.2796 35.1604Z" fill="#51C332"/>
<path d="M71.4387 52.3391C71.4387 45.1106 64.1317 39.2506 55.1222 39.2506C46.1124 39.2506 38.8064 45.1106 38.8064 52.3391C38.8064 59.5669 46.1124 65.4271 55.1222 65.4271C56.6039 65.4271 58.0133 65.2177 59.3808 64.9203L68.1755 68.699L65.1338 62.6037C68.9456 60.208 71.4387 56.5241 71.4387 52.3391ZM50.2275 51.5209C48.8761 51.5209 47.78 50.4221 47.78 49.0664C47.78 47.7113 48.876 46.6128 50.2275 46.6128C51.5794 46.6128 52.6748 47.7118 52.6748 49.0664C52.6748 50.4222 51.5791 51.5209 50.2275 51.5209ZM60.0171 51.5209C58.665 51.5209 57.5698 50.4221 57.5698 49.0664C57.5698 47.7113 58.6649 46.6128 60.0171 46.6128C61.3691 46.6128 62.4646 47.7118 62.4646 49.0664C62.4646 50.4222 61.3691 51.5209 60.0171 51.5209Z" fill="#51C332"/>
</svg>
